<svg xmlns="http://www.w3.org/2000/svg" xmlns:xlink="http://www.w3.org/1999/xlink" version="1.1" x="0px" y="0px" viewBox="0 0 100 125" enable-background="new 0 0 100 100" xml:space="preserve"><path d="M25.2,5v1.6H8.8v71.5h27.5V95h54.9V5H25.2z M19.4,37.3h-4.5v-3.1h4.5V37.3z M19.4,38.2v4.2h-4.5v-4.2H19.4z M19.4,33.3h-4.5  v-3.1h4.5V33.3z M19.4,29.3h-4.5v-3.1h4.5V29.3z M19.4,25.3h-4.5v-3.1h4.5V25.3z M19.4,21.3h-4.5v-3.1h4.5V21.3z M19.4,12.7v4.6  h-4.5v-4.6H19.4z M42.4,88.9V75V72V46.2h-6.1V72H14.9V48.5h10.6v-8.9h16.9v-8.9h-6.1v2.8H25.5V12.7h5.8v-1.6h53.7v6.5H58.9v31  l-0.1,0c0,0-0.2,1.6-1.3,3.2c-1.4,2.1-3.4,3.1-6.2,3.1v2.9c4.7,0,7.3-2.4,8.6-4.5c0.4-0.6,0.7-1.1,0.9-1.7h6.8v-5.5h-3.3V23.1h20.7  v22.8H74.3V52h10.7v36.8H42.4z"/><text x="0" y="115" fill="#000000" font-size="5px" font-weight="bold" font-family="'Helvetica Neue', Helvetica, Arial-Unicode, Arial, Sans-serif">Created by Matthew Bailey</text><text x="0" y="120" fill="#000000" font-size="5px" font-weight="bold" font-family="'Helvetica Neue', Helvetica, Arial-Unicode, Arial, Sans-serif">from the Noun Project</text></svg>
